<?xml version="1.0" standalone="no"?><!-- Generator: Gravit.io --><svg xmlns="http://www.w3.org/2000/svg" xmlns:xlink="http://www.w3.org/1999/xlink" style="isolation:isolate" viewBox="35 81 202 92" width="202" height="92"><defs><clipPath id="_clipPath_4V1F3JE0DQOWytXNdJ7PGZiFFoATX1yu"><rect width="256" height="256"/></clipPath></defs><g clip-path="url(#_clipPath_4V1F3JE0DQOWytXNdJ7PGZiFFoATX1yu)"><path d=" M 163.5 153 L 96.5 153 C 96.5 139.478 85.522 128.5 72 128.5 C 58.478 128.5 47.5 139.478 47.5 153 L 46 153 C 40.481 153 36 148.519 36 143 L 36 125 C 36 121.689 37.875 117.073 40.184 114.7 L 65.026 89.167 C 68.875 85.212 76.481 82 82 82 L 147 82 C 148.656 82 151.069 82.816 152.385 83.82 L 179.256 104.327 C 184.082 108.01 192.912 111.403 198.963 111.898 Q 206.359 112.504 216 115 Q 223.216 116.868 228.576 119.02 C 232.673 120.665 236 125.585 236 130 L 236 140 C 236 147.175 230.175 153 223 153 L 212.5 153 C 212.5 139.478 201.522 128.5 188 128.5 C 174.478 128.5 163.5 139.478 163.5 153 Z " fill-rule="evenodd" fill="rgb(0,0,0)" vector-effect="non-scaling-stroke" stroke-width="1" stroke="rgb(0,0,0)" stroke-linejoin="miter" stroke-linecap="square" stroke-miterlimit="3"/><path d=" M 57.407 112.341 L 77.593 90.659 C 79.473 88.64 83.24 87 86 87 L 99 87 C 100.656 87 102 88.344 102 90 L 102 114 C 102 115.104 101.104 116 100 116 L 59 116 C 56.24 116 55.527 114.36 57.407 112.341 Z " fill="rgb(255,255,255)" vector-effect="non-scaling-stroke" stroke-width="1" stroke="rgb(0,0,0)" stroke-linejoin="miter" stroke-linecap="square" stroke-miterlimit="3"/><path d=" M 106 114 L 106 90 C 106 88.344 107.344 87 109 87 L 141 87 C 143.76 87 147.792 88.344 150 90 L 176.4 109.8 C 177.283 110.462 178 111.896 178 113 L 178 114 C 178 115.104 177.104 116 176 116 L 108 116 C 106.896 116 106 115.104 106 114 Z " fill="rgb(255,255,255)" vector-effect="non-scaling-stroke" stroke-width="1" stroke="rgb(0,0,0)" stroke-linejoin="miter" stroke-linecap="square" stroke-miterlimit="3"/><path d=" M 52.5 153 C 52.5 142.238 61.238 133.5 72 133.5 C 82.762 133.5 91.5 142.238 91.5 153 C 91.5 163.762 82.762 172.5 72 172.5 C 61.238 172.5 52.5 163.762 52.5 153 Z  M 58.25 153 C 58.25 145.411 64.411 139.25 72 139.25 C 79.589 139.25 85.75 145.411 85.75 153 C 85.75 160.589 79.589 166.75 72 166.75 C 64.411 166.75 58.25 160.589 58.25 153 Z " fill-rule="evenodd" fill="rgb(0,0,0)"/><path d=" M 168.5 153 C 168.5 142.238 177.238 133.5 188 133.5 C 198.762 133.5 207.5 142.238 207.5 153 C 207.5 163.762 198.762 172.5 188 172.5 C 177.238 172.5 168.5 163.762 168.5 153 Z  M 174.25 153 C 174.25 145.411 180.411 139.25 188 139.25 C 195.589 139.25 201.75 145.411 201.75 153 C 201.75 160.589 195.589 166.75 188 166.75 C 180.411 166.75 174.25 160.589 174.25 153 Z " fill-rule="evenodd" fill="rgb(0,0,0)"/></g></svg>