<?xml version="1.0" standalone="no"?><!-- Generator: Gravit.io --><svg xmlns="http://www.w3.org/2000/svg" xmlns:xlink="http://www.w3.org/1999/xlink" style="isolation:isolate" viewBox="11 108 226 99" width="226" height="99"><defs><clipPath id="_clipPath_3VcYHs46RD3hpUop3BTfGpARhTvC4Y6U"><rect width="256" height="256"/></clipPath></defs><g clip-path="url(#_clipPath_3VcYHs46RD3hpUop3BTfGpARhTvC4Y6U)"><path d=" M 160.47 147.894 C 174.891 149.921 186 162.324 186 177.3 L 186 177.3 C 186 193.692 172.692 207 156.3 207 L 41.625 207 C 25.233 207 11.925 193.692 11.925 177.3 L 11.925 177.3 C 11.925 168.919 15.404 161.344 21.008 155.955 C 21.003 155.646 21 155.336 21 155.025 C 21 129.071 42.071 108 68.025 108 C 86.366 108 102.269 118.523 110.014 133.86 C 115.447 130.537 121.833 128.625 128.663 128.625 C 142.474 128.625 154.473 136.444 160.47 147.894 Z " fill-rule="evenodd" fill="rgb(35,41,49)"/><circle vector-effect="non-scaling-stroke" cx="197" cy="198" r="9" fill="rgb(35,41,49)"/><circle vector-effect="non-scaling-stroke" cx="215.925" cy="199.99999999999997" r="7" fill="rgb(35,41,49)"/><circle vector-effect="non-scaling-stroke" cx="231.5" cy="201.5" r="5.5" fill="rgb(35,41,49)"/></g></svg>