<?xml version="1.0" standalone="no"?><!-- Generator: Gravit.io --><svg xmlns="http://www.w3.org/2000/svg" xmlns:xlink="http://www.w3.org/1999/xlink" style="isolation:isolate" viewBox="23 23 210 212" width="210" height="212"><defs><clipPath id="_clipPath_bJr1PEhsBgzejAgWC94gUt2ZifEWKr1n"><rect width="256" height="256"/></clipPath></defs><g clip-path="url(#_clipPath_bJr1PEhsBgzejAgWC94gUt2ZifEWKr1n)"><rect x="49" y="107" width="158" height="128" transform="matrix(1,0,0,1,0,0)" fill="rgb(235,235,235)"/><polygon points="232.57,128,23.43,128,128,23" fill="rgb(235,235,235)"/><path d=" M 207 128 L 232.57 128 L 180.285 75.5 L 128 23 L 75.715 75.5 L 23.43 128 L 49 128 L 88.5 88 L 128 48 L 167.5 88 L 207 128 Z " fill-rule="evenodd" fill="rgb(108,12,12)"/><rect x="111.25" y="170.552" width="33.5" height="55.448" transform="matrix(1,0,0,1,0,0)" fill="rgb(92,60,16)"/><rect x="114" y="128" width="28" height="28" transform="matrix(1,0,0,1,0,0)" fill="rgb(36,112,160)"/><rect x="98" y="226" width="60" height="9" transform="matrix(1,0,0,1,0,0)" fill="rgb(179,177,177)"/></g></svg>