<?xml version="1.0" standalone="no"?><!-- Generator: Gravit.io --><svg xmlns="http://www.w3.org/2000/svg" xmlns:xlink="http://www.w3.org/1999/xlink" style="isolation:isolate" viewBox="0 0 256 256" width="256" height="256"><defs><clipPath id="_clipPath_c3omjkEnLw3fYKRFSCCuBkJlVLLgMefk"><rect width="256" height="256"/></clipPath></defs><g clip-path="url(#_clipPath_c3omjkEnLw3fYKRFSCCuBkJlVLLgMefk)"><path d=" M 63.39 83.919 Q 98.057 87.586 120.39 80.919 Q 145.557 74.586 176.39 83.919 L 157.557 213.919 L 82.224 213.919 L 63.39 83.919 Z " fill="rgb(36,111,149)" fill-opacity="0.56"/><path d=" M 63.808 43.017 C 62.497 43.125 61.191 43.238 60.888 43.265 C 60.337 43.314 59.942 43.8 60.007 44.349 L 79.307 208.945 C 79.629 211.69 82.134 213.919 84.899 213.919 L 154.882 213.919 C 157.646 213.919 160.152 211.69 160.473 208.945 L 179.774 44.349 C 179.838 43.8 179.442 43.337 178.889 43.316 C 138.12 41.756 99.475 41.693 63.808 43.017 Z " fill="none" vector-effect="non-scaling-stroke" stroke-width="7" stroke="rgb(130,151,162)" stroke-linejoin="miter" stroke-linecap="square" stroke-miterlimit="3"/></g></svg>